<svg width="40" height="40" viewBox="0 0 40 40" fill="none" xmlns="http://www.w3.org/2000/svg">
<path d="M11.7969 32.8906C11.7969 31.5403 11.2222 30.3223 10.3055 29.4662L10.3059 29.4597C10.389 28.3123 10.4563 27.1028 10.5073 25.8548C12.9068 26.3068 14.607 27.2166 15.5695 28.5679C16.8106 30.3102 16.4801 32.3566 16.3492 32.9422C15.913 34.8946 17.0691 36.8725 19.0277 37.2487C20.1598 37.4662 21.2895 37.5748 22.4116 37.5748C26.346 37.5748 30.2916 36.2301 33.5488 33.5398C37.6472 30.1546 39.9986 25.2197 39.9999 20.0004C40.0027 10.108 31.3991 2.0375 22.4143 2.36008C17.5053 2.53641 13.0936 4.95469 10.0518 7.61656C10.0129 7.25383 9.97219 6.90063 9.92961 6.55813C9.70648 4.76266 9.44289 3.33938 9.14617 2.32773C8.94195 1.63117 8.46352 0 7.10938 0C5.75523 0 5.2768 1.63117 5.07258 2.32773C4.77586 3.33938 4.51234 4.76266 4.28914 6.55813C3.8407 10.1663 3.59375 14.9401 3.59375 20C3.59375 23.3058 3.70406 26.5769 3.91281 29.4596L3.91328 29.4662C2.99656 30.3223 2.42188 31.5403 2.42188 32.8906V35.3125C2.42188 36.583 1.31281 37.6562 0 37.6562V40H4.76562C8.63672 40 11.7969 36.7916 11.7969 32.8906ZM22.4984 4.70234C30.0492 4.43141 37.6587 11.3251 37.6562 19.9997C37.655 24.5177 35.6139 28.7942 32.0563 31.7327C28.5405 34.6366 23.9527 35.8081 19.4699 34.9471C18.8174 34.8218 18.4893 34.1124 18.6366 33.4533C18.8728 32.3961 19.2329 29.6711 17.4786 27.2081C16.1022 25.2757 13.7854 24.0269 10.5836 23.4879C10.6108 22.34 10.6248 19.9127 10.6248 19.8689C11.0814 20.401 11.6862 20.7841 12.3782 20.9695C14.2548 21.4723 16.1834 20.3517 16.684 18.4835C17.1857 16.611 16.0705 14.6795 14.198 14.1778C12.7918 13.801 11.3879 14.3318 10.5538 15.3625C10.5017 13.6977 10.4215 12.1009 10.3152 10.6082C12.967 7.80656 17.4504 4.88367 22.4984 4.70234ZM12.1562 17.2702C12.3239 16.6446 12.9658 16.2739 13.5915 16.4416C14.2156 16.6088 14.5874 17.2527 14.4202 17.8768C14.2529 18.501 13.6087 18.8727 12.9848 18.7055C12.3593 18.5379 11.9886 17.896 12.1562 17.2702ZM6.49953 7.84703C6.70195 5.96078 6.91852 4.68227 7.10938 3.82172C7.30023 4.68227 7.5168 5.96078 7.71922 7.84703C8.08164 11.2245 8.28125 15.5405 8.28125 20C8.28125 20.3914 8.27961 20.7822 8.27648 21.1719H5.94227C5.93914 20.7822 5.9375 20.3914 5.9375 20C5.9375 15.5405 6.13711 11.2245 6.49953 7.84703ZM5.98008 23.5148H8.23867C8.19852 25.1698 8.13016 26.7792 8.03523 28.2954C7.73578 28.2352 7.42625 28.2031 7.10938 28.2031C6.7925 28.2031 6.48297 28.2352 6.18352 28.2954C6.08867 26.7792 6.02031 25.1698 5.98008 23.5148ZM4.76562 35.3125V32.8906C4.76562 31.5983 5.81703 30.5469 7.10938 30.5469C8.40172 30.5469 9.45312 31.5983 9.45312 32.8906C9.45312 35.5184 7.35031 37.6562 4.76562 37.6562H4.12063C4.54141 36.9499 4.76562 36.1473 4.76562 35.3125Z" fill="white"/>
<path d="M31.4588 15.8568C32.8327 14.483 32.8331 12.2591 31.4588 10.8849C30.0882 9.51423 27.8577 9.51415 26.487 10.8849C25.1131 12.2588 25.1127 14.4827 26.487 15.8568C27.8577 17.2275 30.0881 17.2276 31.4588 15.8568ZM28.1442 12.5423C28.6012 12.0854 29.3445 12.0853 29.8016 12.5423C30.2596 13.0003 30.2596 13.7415 29.8016 14.1995C29.3445 14.6565 28.6012 14.6564 28.1442 14.1995C27.6863 13.7415 27.6862 13.0002 28.1442 12.5423Z" fill="white"/>
<path d="M20.8271 14.3403C22.6996 13.8386 23.8149 11.907 23.3131 10.0346C22.8113 8.1622 20.8797 7.04696 19.0074 7.54868C17.1349 8.0504 16.0197 9.98196 16.5214 11.8545C17.0243 13.7312 18.9501 14.8432 20.8271 14.3403ZM19.614 9.81251C20.2395 9.64493 20.8824 10.0184 21.0493 10.6411C21.2166 11.2652 20.8448 11.9091 20.2206 12.0763C19.5951 12.2439 18.9531 11.8734 18.7854 11.2477C18.6181 10.6236 18.9898 9.97978 19.614 9.81251Z" fill="white"/>
<path d="M21.3743 29.9655C21.8754 31.8352 23.805 32.9539 25.6802 32.4514C27.5526 31.9497 28.6678 30.0181 28.166 28.1457C27.6632 26.2692 25.7378 25.1568 23.8603 25.6598C21.9879 26.1615 20.8726 28.093 21.3743 29.9655ZM24.467 27.9236C25.0937 27.7556 25.735 28.1278 25.9021 28.7522C26.0694 29.3764 25.6977 30.0202 25.0736 30.1875C24.4493 30.3548 23.8056 29.9829 23.6383 29.3589C23.4711 28.7347 23.8428 28.0909 24.467 27.9236Z" fill="white"/>
<path d="M28.0035 21.5166C27.5018 23.3891 28.617 25.3205 30.4894 25.8223C32.3647 26.3248 34.2919 25.2147 34.7951 23.3364C35.2979 21.4597 34.1862 19.5336 32.3093 19.0307C30.4326 18.5276 28.5065 19.6395 28.0035 21.5166ZM32.5312 22.7298C32.3638 23.3552 31.7217 23.7261 31.0961 23.5584C30.4719 23.3912 30.1002 22.7473 30.2675 22.1231C30.4347 21.4988 31.0758 21.1266 31.7026 21.2945C32.3267 21.4617 32.6985 22.1055 32.5312 22.7298Z" fill="white"/>
</svg>
