<svg width="34" height="40" viewBox="0 0 34 40" fill="none" xmlns="http://www.w3.org/2000/svg">
<path d="M23.1714 0H7.10587C4.75884 0 2.84853 1.91156 2.84853 4.25734V20H2.43263C1.48536 20 0.717285 20.7674 0.717285 21.7154V32.1193C0.717285 33.0673 1.48536 33.8349 2.43263 33.8349H2.84853V35.7426C2.84853 38.0909 4.75892 39.9999 7.10587 39.9999H29.0267C31.3723 39.9999 33.2827 38.0909 33.2827 35.7426V10.0758L23.1714 0ZM8.91074 29.469C9.40312 29.469 9.94902 29.3619 10.2708 29.2338L10.5164 30.5072C10.217 30.6576 9.54234 30.8185 8.665 30.8185C6.17038 30.8185 4.88569 29.2665 4.88569 27.211C4.88569 24.7489 6.64161 23.3786 8.82529 23.3786C9.67118 23.3786 10.3132 23.5499 10.6021 23.699L10.2708 24.9947C9.93857 24.8548 9.47837 24.7268 8.90037 24.7268C7.60456 24.7268 6.59847 25.5086 6.59847 27.1143C6.59847 28.559 7.4549 29.469 8.91074 29.469ZM29.0266 37.3926H7.10587C6.19709 37.3926 5.45698 36.6526 5.45698 35.7426V33.8349H25.8917C26.8391 33.8349 27.6073 33.0673 27.6073 32.1193V21.7154C27.6073 20.7674 26.8391 20 25.8917 20H5.45698V4.25734C5.45698 3.34981 6.19709 2.60978 7.10587 2.60978L22.1961 2.5941V8.17197C22.1961 9.80112 23.518 11.1244 25.1485 11.1244L30.6125 11.1088L30.674 35.7426C30.674 36.6526 29.9353 37.3926 29.0266 37.3926ZM13.3892 27.6817C12.19 27.2646 11.4083 26.6004 11.4083 25.5517C11.4083 24.3199 12.4358 23.3786 14.1383 23.3786C14.9515 23.3786 15.5518 23.5498 15.9793 23.7421L15.6157 25.0588C15.3269 24.9202 14.8129 24.7161 14.1062 24.7161C13.3995 24.7161 13.057 25.0379 13.057 25.4119C13.057 25.8721 13.4636 26.0761 14.3952 26.429C15.6694 26.8998 16.2688 27.5641 16.2688 28.5814C16.2688 29.7907 15.3372 30.8185 13.357 30.8185C12.5326 30.8185 11.7187 30.6041 11.3121 30.3791L11.6441 29.031C12.0829 29.256 12.7576 29.4796 13.4531 29.4796C14.2024 29.4796 14.5985 29.1696 14.5985 28.6988C14.5986 28.2492 14.2561 27.9916 13.3892 27.6817ZM19.173 27.6817C17.9741 27.2646 17.1921 26.6004 17.1921 25.5517C17.1921 24.3199 18.2199 23.3786 19.9221 23.3786C20.7362 23.3786 21.3349 23.5498 21.7638 23.7421L21.3998 25.0588C21.1107 24.9202 20.5969 24.7161 19.8902 24.7161C19.1835 24.7161 18.8409 25.0379 18.8409 25.4119C18.8409 25.8721 19.2475 26.0761 20.1792 26.429C21.4534 26.8998 22.053 27.5641 22.053 28.5814C22.053 29.7907 21.1214 30.8185 19.1411 30.8185C18.3166 30.8185 17.5027 30.6041 17.0961 30.3791L17.4282 29.031C17.8669 29.256 18.5415 29.4796 19.2371 29.4796C19.9863 29.4796 20.3826 29.1696 20.3826 28.6988C20.3825 28.2492 20.0398 27.9916 19.173 27.6817Z" fill="white"/>
</svg>
