<svg width="40" height="32" xmlns="http://www.w3.org/2000/svg">

 <g>
  <title>background</title>
  <rect fill="none" id="canvas_background" height="402" width="582" y="-1" x="-1"/>
 </g>
 <g>
  <title>Layer 1</title>
  <path id="svg_1" fill="#fcfcfc" d="m39.752,15.3994l-10.2087,-10.20871c-0.3174,-0.31745 -0.8791,-0.31745 -1.1965,0l-2.2133,2.21324c-0.3305,0.33057 -0.3305,0.86642 0,1.19699l7.3974,7.39648l-7.3969,7.3978c-0.3306,0.3306 -0.3306,0.8664 0,1.197l2.2132,2.2132c0.1587,0.1588 0.3742,0.2485 0.5985,0.2485c0.2239,0 0.4398,-0.0897 0.5985,-0.2485l10.2078,-10.2082c0.3306,-0.331 0.3306,-0.8673 0,-1.1978z"/>
  <path id="svg_2" fill="#fcfcfc" d="m13.8656,23.3952l-7.39608,-7.3969l7.39738,-7.39653c0.1587,-0.15872 0.248,-0.37374 0.248,-0.59849c0,-0.22433 -0.0889,-0.43977 -0.248,-0.5985l-2.2133,-2.21324c-0.1587,-0.15872 -0.3741,-0.24803 -0.5985,-0.24803c-0.2243,0 -0.4397,0.08931 -0.5984,0.24803l-10.20914,10.20786c-0.33057,0.3305 -0.33057,0.8664 0,1.1974l10.20864,10.2082c0.1588,0.1587 0.3742,0.2485 0.5985,0.2485c0.2243,0 0.4398,-0.0898 0.5985,-0.2485l2.2133,-2.2132c0.3305,-0.3302 0.3305,-0.866 -0.0009,-1.1966z"/>
  <path id="svg_3" fill="#fcfcfc" d="m25.8051,1.75635c-0.1076,-0.19724 -0.2887,-0.34368 -0.5037,-0.40717l-1.7942,-0.5295c-0.4478,-0.13291 -0.9194,0.12401 -1.0514,0.57225l-8.3294,28.20747c-0.0635,0.2154 -0.0389,0.447 0.0681,0.6438c0.1071,0.1976 0.2887,0.3437 0.5037,0.4076l1.7942,0.5295c0.08,0.0237 0.1609,0.0351 0.24,0.0351c0.3653,0 0.7026,-0.2387 0.8114,-0.6074l8.3294,-28.20786c0.0635,-0.21544 0.0394,-0.44697 -0.0681,-0.64379z"/>
 </g>
</svg>