<svg width="40" height="32" viewBox="0 0 40 32" fill="#fff" xmlns="http://www.w3.org/2000/svg">
<path d="M39.752 15.3994L29.5433 5.19069C29.2259 4.87324 28.6642 4.87324 28.3468 5.19069L26.1335 7.40393C25.803 7.7345 25.803 8.27035 26.1335 8.60092L33.5309 15.9974L26.134 23.3952C25.8034 23.7258 25.8034 24.2616 26.134 24.5922L28.3472 26.8054C28.5059 26.9642 28.7214 27.0539 28.9457 27.0539C29.1696 27.0539 29.3855 26.9642 29.5442 26.8054L39.752 16.5972C40.0826 16.2662 40.0826 15.7299 39.752 15.3994Z" fill="#00D9A6"/>
<path d="M13.8656 23.3952L6.46952 15.9983L13.8669 8.60177C14.0256 8.44305 14.1149 8.22803 14.1149 8.00328C14.1149 7.77895 14.026 7.56351 13.8669 7.40478L11.6536 5.19154C11.4949 5.03282 11.2795 4.94351 11.0551 4.94351C10.8308 4.94351 10.6154 5.03282 10.4567 5.19154L0.24756 15.3994C-0.0830082 15.7299 -0.0830082 16.2658 0.24756 16.5968L10.4562 26.805C10.615 26.9637 10.8304 27.0535 11.0547 27.0535C11.279 27.0535 11.4945 26.9637 11.6532 26.805L13.8665 24.5918C14.197 24.2616 14.197 23.7258 13.8656 23.3952Z" fill="#00D9A6"/>
<path d="M25.8051 1.75635C25.6975 1.55911 25.5164 1.41267 25.3014 1.34918L23.5072 0.819675C23.0594 0.68677 22.5878 0.943691 22.4558 1.39193L14.1264 29.5994C14.0629 29.8148 14.0875 30.0464 14.1945 30.2432C14.3016 30.4408 14.4832 30.5869 14.6982 30.6508L16.4924 31.1803C16.5724 31.204 16.6533 31.2154 16.7324 31.2154C17.0977 31.2154 17.435 30.9767 17.5438 30.608L25.8732 2.40014C25.9367 2.1847 25.9126 1.95317 25.8051 1.75635Z" fill="#00D9A6"/>
</svg>
