<svg width="40" height="40" viewBox="0 0 40 40" fill="none" xmlns="http://www.w3.org/2000/svg">
<path d="M0.895546 16.5955L5.57398 15.4602C5.83523 14.6372 6.16453 13.8408 6.55797 13.0803L4.15773 9.08008C3.88109 8.61898 3.95375 8.02875 4.33398 7.64852L7.64844 4.33398C8.02867 3.95375 8.61898 3.88109 9.07992 4.15773L13.0805 6.55789C13.841 6.1643 14.6376 5.835 15.4602 5.57391L16.5955 0.895547C16.7231 0.37 17.1936 0 17.7344 0H22.4219C22.9627 0 23.4331 0.37 23.5607 0.895547L24.696 5.57391C25.5187 5.835 26.3152 6.16438 27.0758 6.55789L31.0763 4.15773C31.5373 3.88109 32.1274 3.95375 32.5077 4.33398L35.8223 7.64844C36.2025 8.02867 36.2752 8.61891 35.9985 9.08L33.5983 13.0802C33.9926 13.8423 34.3225 14.6405 34.5839 15.4653L39.1123 16.5974C39.634 16.7279 40 17.1966 40 17.7344V22.4219C40 22.9596 39.634 23.4284 39.1123 23.5588L34.584 24.6909C34.3224 25.5159 33.9927 26.3138 33.5984 27.0759L35.9986 31.0761C36.2752 31.5372 36.2026 32.1274 35.8223 32.5077L32.5078 35.8223C32.1277 36.2025 31.5374 36.2752 31.0763 35.9985L27.076 33.5984C26.314 33.9927 25.5157 34.3225 24.6909 34.584L23.5588 39.1123C23.4284 39.634 22.9596 40 22.4219 40H17.7344C17.1966 40 16.7279 39.634 16.5975 39.1123L15.4654 34.584C14.6405 34.3225 13.8423 33.9927 13.0803 33.5984L9.08008 35.9985C8.61906 36.2752 8.02875 36.2025 7.64851 35.8223L4.33398 32.5077C3.95375 32.1274 3.88109 31.5372 4.15773 31.0761L6.55789 27.0759C6.16446 26.3155 5.83523 25.5191 5.57398 24.6961L0.895546 23.5607C0.370003 23.4332 0 22.9627 0 22.4219V17.7344C0 17.1936 0.370003 16.723 0.895546 16.5955ZM2.34375 21.5004L6.78469 22.5781C7.20133 22.6792 7.52953 22.9998 7.64039 23.414C7.93305 24.5076 8.36453 25.5512 8.92266 26.5159C9.13601 26.8848 9.1325 27.3403 8.9132 27.7057L6.6382 31.4973L8.65875 33.518L12.4503 31.243C12.8157 31.0238 13.2713 31.0202 13.6401 31.2335C14.6052 31.7918 15.6489 32.2232 16.7423 32.5159C17.1537 32.626 17.473 32.9506 17.5763 33.3638L18.6494 37.6562H21.5069L22.58 33.3638C22.6832 32.9506 23.0025 32.626 23.4139 32.5159C24.5073 32.2233 25.5511 31.7918 26.5162 31.2335C26.8849 31.0202 27.3405 31.0238 27.7059 31.243L31.4975 33.518L33.518 31.4973L31.243 27.7057C31.0238 27.3403 31.0202 26.8847 31.2336 26.5159C31.7918 25.5512 32.2232 24.5076 32.5159 23.414C32.6259 23.0027 32.9505 22.6834 33.3637 22.5801L37.6562 21.5069V18.6493L33.3637 17.5762C32.9506 17.4729 32.626 17.1537 32.5159 16.7423C32.2232 15.6487 31.7917 14.605 31.2335 13.6401C31.0202 13.2712 31.0238 12.8157 31.243 12.4503L33.518 8.65867L31.4975 6.63813L27.7057 8.91313C27.3405 9.13234 26.8848 9.13594 26.516 8.92258C25.5505 8.36406 24.5068 7.93266 23.414 7.64023C22.9998 7.52945 22.6792 7.20125 22.578 6.78453L21.5004 2.34375H18.6559L17.5782 6.78469C17.477 7.20133 17.1565 7.52953 16.7423 7.64039C15.6495 7.93281 14.6057 8.36422 13.6402 8.92273C13.2716 9.13609 12.8159 9.1325 12.4505 8.91328L8.65875 6.63828L6.6382 8.65883L8.9132 12.4505C9.13242 12.8159 9.13609 13.2714 8.92273 13.6402C8.36445 14.6052 7.93305 15.6488 7.64039 16.7424C7.52953 17.1566 7.20133 17.4772 6.78469 17.5783L2.34375 18.6559V21.5004Z" fill="white"/>
<path d="M20.0781 11.875C24.6013 11.875 28.2812 15.5549 28.2812 20.0781C28.2812 24.6013 24.6013 28.2812 20.0781 28.2812C15.5549 28.2812 11.875 24.6013 11.875 20.0781C11.875 15.5549 15.5549 11.875 20.0781 11.875ZM20.0781 25.9375C23.309 25.9375 25.9375 23.309 25.9375 20.0781C25.9375 16.8473 23.309 14.2188 20.0781 14.2188C16.8473 14.2188 14.2188 16.8473 14.2188 20.0781C14.2188 23.309 16.8473 25.9375 20.0781 25.9375Z" fill="white"/>
</svg>
