<svg width="130" height="111" viewBox="0 0 130 111" fill="none" xmlns="http://www.w3.org/2000/svg">
<path fill-rule="evenodd" clip-rule="evenodd" d="M27.0014 0.513916C19.5838 0.513916 14.0951 7.40844 14.3409 14.8854C14.5768 22.0687 14.2703 31.3721 12.0649 38.959C9.85156 46.5673 6.11102 51.3886 0 52.0074V58.9941C6.11102 59.6143 9.85156 64.4332 12.0646 72.0425C14.2703 79.6294 14.5765 88.9329 14.3406 96.1162C14.0948 103.592 19.5835 110.488 27.0024 110.488H103.008C110.426 110.488 115.914 103.593 115.668 96.1162C115.432 88.9329 115.739 79.6294 117.944 72.0425C120.157 64.4332 123.889 59.6124 130 58.9941V52.0074C123.889 51.3872 120.158 46.5684 117.944 38.959C115.738 31.3732 115.432 22.0687 115.668 14.8854C115.914 7.40952 110.426 0.513916 103.008 0.513916H27.0004H27.0014ZM88.1357 68.2099C88.1357 78.5053 80.9042 84.7492 68.9033 84.7492H48.4745C47.8901 84.7492 47.3297 84.5027 46.9165 84.0639C46.5033 83.6251 46.2711 83.0299 46.2711 82.4094V28.5924C46.2711 27.9719 46.5033 27.3767 46.9165 26.9379C47.3297 26.4991 47.8901 26.2526 48.4745 26.2526H68.787C78.7937 26.2526 85.361 32.0087 85.361 40.8462C85.361 47.0491 80.943 52.6022 75.3147 53.575V53.8986C82.9766 54.7911 88.1357 60.4264 88.1357 68.2099ZM66.6758 33.6699H55.0276V51.1421H64.8383C72.4224 51.1421 76.6043 47.899 76.6043 42.1022C76.6035 36.6696 73.0082 33.6699 66.6758 33.6699ZM55.0276 58.0747V77.3295H67.1044C75.0009 77.3295 79.1835 73.9647 79.1835 67.6413C79.1835 61.3178 74.8836 58.0736 66.5966 58.0736H55.0276V58.0747Z" fill="#7952B3"/>
</svg>
