<svg width="134" height="110" viewBox="0 0 134 110" fill="none" xmlns="http://www.w3.org/2000/svg">
<g clip-path="url(#clip0)">
<path d="M82.819 95.4725L54.9996 102.963L27.1798 95.4725L20.7601 25.924H89.2394L82.819 95.4725Z" fill="#2062AF"/>
<path d="M54.9994 31.5574V96.989L55.0623 97.0061L77.5754 90.9439L82.7718 31.5574H54.9994Z" fill="#3C9CD7"/>
<path d="M39.2108 15.7059V11.5664H45.2504V7.03674H34.6812V19.8393H45.2504V15.7059H39.2108ZM56.1149 11.5664H60.3374V7.03674H49.7672V11.5664C51.1813 12.9805 51.9188 13.6574 53.9641 15.7026C52.7685 15.7026 49.7672 15.7069 49.7672 15.7067V19.8393H60.3374V15.7059L56.1149 11.5664ZM71.0963 11.5664H75.3185V7.03674H64.7479V11.5664C66.1621 12.9805 66.9 13.6574 68.9452 15.7026C67.75 15.7026 64.7479 15.7069 64.7479 15.7067V19.8393H75.3187V15.7059L71.0963 11.5664Z" fill="black"/>
<path d="M54.9747 48.9473L35.0634 57.2398L35.7237 65.45L54.9747 57.219L75.4527 48.4637L76.3017 40.0649L54.9747 48.9473Z" fill="white"/>
<path d="M35.0632 57.2398L35.7235 65.45L54.9744 57.2189V48.9473L35.0632 57.2398Z" fill="url(#paint0_linear)"/>
<path d="M76.3017 40.0652L54.9747 48.9474V57.219L75.4527 48.4637L76.3017 40.0652Z" fill="url(#paint1_linear)"/>
<path d="M35.0938 57.2397L35.7543 65.45L65.2925 65.5441L64.6317 76.4909L54.912 79.2273L45.5684 76.8682L45.0023 70.0735H36.3205L37.453 83.1908L55.0063 88.3809L72.4645 83.285L74.7296 57.2397H35.0938Z" fill="url(#paint2_linear)"/>
<path opacity="0.05" d="M54.9747 57.2397H35.0634L35.7237 65.45L54.9747 65.5114V57.2397ZM54.9747 79.2012L54.8803 79.2275L45.538 76.8684L44.9719 70.0737H36.2903L37.4226 83.191L54.9747 88.3811V79.2012Z" fill="black"/>
<path d="M33.2701 40.0652H76.3018L75.4527 48.4639H34.3081L33.2701 40.0652Z" fill="url(#paint3_linear)"/>
<path opacity="0.05" d="M54.9747 40.0652H33.2701L34.3081 48.4639H54.9747V40.0652Z" fill="black"/>
</g>
<path d="M81.9132 100.178L78 56.793H121L117.083 100.172L99.4736 104.997L81.9132 100.178Z" fill="#E44D26"/>
<path d="M99.5 101.309L113.729 97.4092L117.077 60.3405H99.5V101.309Z" fill="#F16529"/>
<path d="M99.5 76.4316H92.3769L91.8848 70.9827H99.5V65.6616H86.0015L86.1305 67.0892L87.4536 81.7525H99.5V76.4316ZM99.5 90.2508L99.4764 90.2571L93.4812 88.6569L93.0979 84.4132H87.6942L88.4484 92.7681L99.4754 95.7939L99.5 95.787V90.2508Z" fill="#EBEBEB"/>
<path d="M82.0007 45.0027H84.7363V47.6743H87.2387V45.0027H89.9744V53.0929H87.2387V50.3839H84.7363V53.0929H82.0009L82.0007 45.0027ZM93.572 47.6857H91.1638V45.0027H98.7175V47.6857H96.3081V53.0929H93.5721V47.6857H93.572ZM99.9161 45.0027H102.769L104.523 47.8454L106.276 45.0027H109.13V53.0929H106.405V49.0829L104.523 51.9594H104.476L102.593 49.0829V53.0929H99.916V45.0027H99.9161ZM110.491 45.0027H113.228V50.4189H117.075V53.0929H110.491V45.0027Z" fill="black"/>
<path d="M99.4814 76.4316V81.7525H106.11L105.485 88.6536L99.4814 90.2552V95.7911L110.517 92.7681L110.598 91.8688L111.863 77.8605L111.994 76.4316H110.544H99.4814ZM99.4814 65.6616V70.9827H112.484L112.592 69.7866L112.837 67.0892L112.966 65.6616H99.4814Z" fill="white"/>
<defs>
<linearGradient id="paint0_linear" x1="45.0188" y1="65.4502" x2="45.0188" y2="48.9475" gradientUnits="userSpaceOnUse">
<stop offset="0.387" stop-color="#D1D3D4" stop-opacity="0"/>
<stop offset="1" stop-color="#D1D3D4"/>
</linearGradient>
<linearGradient id="paint1_linear" x1="65.638" y1="57.2193" x2="65.638" y2="40.0654" gradientUnits="userSpaceOnUse">
<stop offset="0.387" stop-color="#D1D3D4" stop-opacity="0"/>
<stop offset="1" stop-color="#D1D3D4"/>
</linearGradient>
<linearGradient id="paint2_linear" x1="35.0938" y1="72.8105" x2="74.7294" y2="72.8105" gradientUnits="userSpaceOnUse">
<stop stop-color="#E8E7E5"/>
<stop offset="1" stop-color="white"/>
</linearGradient>
<linearGradient id="paint3_linear" x1="33.2701" y1="44.2645" x2="76.3015" y2="44.2645" gradientUnits="userSpaceOnUse">
<stop stop-color="#E8E7E5"/>
<stop offset="1" stop-color="white"/>
</linearGradient>
<clipPath id="clip0">
<rect width="110" height="110" fill="white"/>
</clipPath>
</defs>
</svg>
