<svg width="110" height="111" viewBox="0 0 110 111" fill="none" xmlns="http://www.w3.org/2000/svg">
<g clip-path="url(#clip0)">
<path d="M0 0.5H110V110.5H0V0.5Z" fill="#F7DF1E"/>
<path d="M28.923 92.4238L37.3406 87.3295C38.9648 90.2088 40.4421 92.6451 43.9857 92.6451C47.3824 92.6451 49.5244 91.3165 49.5244 86.1482V51.0007H59.8614V86.2943C59.8614 97.0009 53.5854 101.874 44.4287 101.874C36.1594 101.874 31.3594 97.5917 28.9226 92.423L28.923 92.4238ZM65.4761 91.3161L73.8928 86.443C76.1087 90.0614 78.9885 92.7195 84.0829 92.7195C88.3664 92.7195 91.0975 90.5779 91.0975 87.6242C91.0975 84.0802 88.2917 82.8246 83.566 80.7578L80.9823 79.6492C73.5242 76.4751 68.5772 72.4876 68.5772 64.0701C68.5772 56.3168 74.4841 50.4094 83.7142 50.4094C90.2858 50.4094 95.0116 52.6988 98.4078 58.6796L90.3589 63.8488C88.5864 60.6738 86.6674 59.4187 83.7138 59.4187C80.6862 59.4187 78.7664 61.3385 78.7664 63.8488C78.7664 66.9498 80.6862 68.2058 85.1163 70.1256L87.7004 71.2329C96.4875 74.9992 101.435 78.8384 101.435 87.4768C101.435 96.7813 94.1247 101.876 84.3042 101.876C74.7054 101.876 68.5028 97.2978 65.4757 91.3165" fill="black"/>
</g>
<defs>
<clipPath id="clip0">
<rect width="110" height="110" fill="white" transform="translate(0 0.5)"/>
</clipPath>
</defs>
</svg>
