<svg width="34" height="34" viewBox="0 0 34 34" fill="none" xmlns="http://www.w3.org/2000/svg">
<rect width="34" height="34" rx="4" fill="#00D9A6"/>
<g clip-path="url(#clip0)">
<path d="M20.8678 17.0002C20.8678 19.1324 19.1321 20.8681 17 20.8681C14.8678 20.8681 13.1321 19.1324 13.1321 17.0002C13.1321 14.8681 14.8678 13.1324 17 13.1324C19.1321 13.1324 20.8678 14.8681 20.8678 17.0002ZM17 4.14307C9.91032 4.14307 4.14282 9.91057 4.14282 17.0002C4.14282 24.0899 9.91032 29.8574 17 29.8574C19.5971 29.8574 22.101 29.0838 24.2428 27.6213L24.2793 27.5956L22.5468 25.5824L22.5178 25.6006C20.8728 26.6604 18.9569 27.2233 17 27.2216C11.3643 27.2216 6.77854 22.6359 6.77854 17.0002C6.77854 11.3645 11.3643 6.77878 17 6.77878C22.6357 6.77878 27.2214 11.3645 27.2214 17.0002C27.2199 17.7389 27.1391 18.4752 26.9803 19.1966C26.6578 20.5241 25.7278 20.9302 25.0303 20.8766C24.3296 20.8199 23.5089 20.3195 23.5025 19.097V17.0002C23.5008 15.2761 22.8152 13.623 21.5961 12.4037C20.3771 11.1845 18.7241 10.4986 17 10.4966C15.2756 10.4983 13.6224 11.1841 12.4031 12.4034C11.1838 13.6227 10.4981 15.2759 10.4964 17.0002C10.4981 18.7245 11.1838 20.3778 12.4031 21.597C13.6224 22.8163 15.2756 23.5021 17 23.5038C17.8569 23.5059 18.7057 23.3371 19.4968 23.0075C20.2878 22.6778 21.0052 22.1938 21.6071 21.5838C21.9875 22.1812 22.5136 22.6721 23.1358 23.0104C23.758 23.3486 24.456 23.5232 25.1643 23.5177C26.1007 23.5177 27.0285 23.2049 27.7753 22.6381C28.5457 22.052 29.121 21.2066 29.4393 20.1899C29.4896 20.0249 29.5839 19.6499 29.5839 19.6466L29.586 19.6327C29.7735 18.8184 29.8571 18.0041 29.8571 17.0002C29.8571 9.91057 24.0896 4.14307 17 4.14307" fill="white"/>
</g>
<defs>
<clipPath id="clip0">
<rect width="25.7143" height="25.7143" fill="white" transform="translate(4.14282 4.14307)"/>
</clipPath>
</defs>
</svg>
