<svg width="34" height="34" viewBox="0 0 34 34" fill="none" xmlns="http://www.w3.org/2000/svg">
<g clip-path="url(#clip0)">
<rect width="34" height="34" rx="4" fill="#00D9A6"/>
<path d="M440.2 -164.6C417.6 -218.3 385.2 -266.5 343.9 -307.9C302.6 -349.2 254.4 -381.7 200.6 -404.2C145.6 -427.3 87.2001 -439 27.0001 -439H25.0001C-35.5999 -438.7 -94.2999 -426.7 -149.5 -403.1C-202.8 -380.3 -250.6 -347.9 -291.5 -306.6C-332.4 -265.3 -364.5 -217.3 -386.7 -163.8C-409.7 -108.4 -421.3 -49.5 -421 11.1C-420.7 80.5 -404.1 149.4 -373 211V363C-373 388.4 -352.4 409 -327 409H-174.9C-113.3 440.1 -44.3999 456.7 25.0001 457H27.1C87 457 145.1 445.4 199.8 422.7C253.3 400.4 301.4 368.4 342.6 327.5C383.9 286.6 416.4 238.8 439.1 185.5C462.7 130.3 474.7 71.6 475 11C475.3 -49.9 463.5 -109 440.2 -164.6ZM289.1 273.4C219 342.8 126 381 27.0001 381H25.3C-34.9999 380.7 -94.8999 365.7 -147.8 337.5L-156.2 333H-297V192.2L-301.5 183.8C-329.7 130.9 -344.7 71 -345 10.7C-345.4 -89 -307.3 -182.6 -237.4 -253.1C-167.6 -323.6 -74.2999 -362.6 25.4001 -363H27.1C77.1 -363 125.6 -353.3 171.3 -334.1C215.9 -315.4 255.9 -288.5 290.3 -254.1C324.6 -219.8 351.6 -179.7 370.3 -135.1C389.7 -88.9 399.4 -39.9 399.2 10.7C398.6 110.3 359.5 203.6 289.1 273.4Z" fill="black"/>
<path d="M22.9033 19.5752C22.584 19.4111 20.9932 18.6318 20.6973 18.5264C20.4014 18.415 20.1846 18.3623 19.9707 18.6904C19.7539 19.0156 19.1387 19.7393 18.9453 19.959C18.7578 20.1758 18.5674 20.2021 18.248 20.041C16.3496 19.0918 15.1045 18.3477 13.8535 16.2002C13.5225 15.6289 14.1846 15.6699 14.8027 14.4365C14.9082 14.2197 14.8555 14.0352 14.7734 13.8711C14.6914 13.707 14.0469 12.1191 13.7773 11.4717C13.5166 10.8418 13.2471 10.9297 13.0508 10.918C12.8633 10.9062 12.6494 10.9062 12.4326 10.9062C12.2158 10.9062 11.8672 10.9883 11.5713 11.3076C11.2754 11.6328 10.4404 12.415 10.4404 14.0029C10.4404 15.5908 11.5977 17.1289 11.7559 17.3457C11.9199 17.5625 14.0322 20.8203 17.2754 22.2236C19.3262 23.1084 20.1289 23.1846 21.1543 23.0322C21.7783 22.9385 23.0645 22.2529 23.3311 21.4941C23.5977 20.7383 23.5977 20.0908 23.5186 19.9561C23.4395 19.8125 23.2227 19.7305 22.9033 19.5752Z" fill="white"/>
<path d="M29.1054 11.9141C28.4433 10.3408 27.4941 8.92871 26.2841 7.71582C25.0741 6.50586 23.662 5.55371 22.0859 4.89453C20.4745 4.21777 18.7636 3.875 16.9999 3.875H16.9413C15.1659 3.88379 13.4462 4.23535 11.829 4.92676C10.2675 5.59473 8.86711 6.54395 7.66887 7.75391C6.47063 8.96387 5.5302 10.3701 4.8798 11.9375C4.20598 13.5605 3.86613 15.2861 3.87492 17.0615C3.88371 19.0947 4.37004 21.1133 5.28117 22.918V27.3711C5.28117 28.1152 5.88469 28.7188 6.62883 28.7188H11.0849C12.8896 29.6299 14.9081 30.1162 16.9413 30.125H17.0029C18.7577 30.125 20.4599 29.7852 22.0624 29.1201C23.6298 28.4668 25.039 27.5293 26.246 26.3311C27.456 25.1328 28.4081 23.7324 29.0732 22.1709C29.7646 20.5537 30.1161 18.834 30.1249 17.0586C30.1337 15.2744 29.788 13.543 29.1054 11.9141ZM24.6786 24.7461C22.6249 26.7793 19.9003 27.8984 16.9999 27.8984H16.9501C15.1835 27.8896 13.4286 27.4502 11.8788 26.624L11.6327 26.4922H7.50773V22.3672L7.3759 22.1211C6.54973 20.5713 6.11027 18.8164 6.10148 17.0498C6.08977 14.1289 7.20598 11.3867 9.25383 9.32129C11.2987 7.25586 14.0321 6.11328 16.953 6.10156H17.0029C18.4677 6.10156 19.8886 6.38574 21.2275 6.94824C22.5341 7.49609 23.706 8.28418 24.7138 9.29199C25.7187 10.2969 26.5097 11.4717 27.0575 12.7783C27.6259 14.1318 27.9101 15.5674 27.9042 17.0498C27.8866 19.9678 26.7411 22.7012 24.6786 24.7461Z" fill="white"/>
</g>
<defs>
<clipPath id="clip0">
<rect width="34" height="34" fill="white"/>
</clipPath>
</defs>
</svg>
