<svg width="160" height="161" viewBox="0 0 160 161" fill="none" xmlns="http://www.w3.org/2000/svg">
<g clip-path="url(#clip0)">
<path fill-rule="evenodd" clip-rule="evenodd" d="M110.999 72.1043C119.971 72.1043 128.14 75.5425 134.263 81.1716C131.262 81.0911 128.267 82.8752 128.143 86.9607C127.89 95.2201 138.019 96.9794 132.561 113.593L128.047 127.334L115.752 91.116C115.561 90.5553 115.783 90.2363 116.472 90.2363H119.948C120.128 90.2363 120.276 90.082 120.276 89.8931V87.8343C120.276 87.6454 120.128 87.4834 119.948 87.4912C113.365 87.779 106.821 87.781 100.316 87.4912C100.135 87.4834 99.9879 87.646 99.9879 87.835V89.8939C99.9879 90.0826 100.136 90.237 100.316 90.237H103.811C104.589 90.237 104.807 90.4961 104.99 90.9972L110.042 104.813L102.442 127.761L89.9502 90.9663C89.7953 90.5047 89.9827 90.2368 90.4272 90.2368H94.4098C94.5904 90.2368 94.738 90.0826 94.738 89.8936V87.8348C94.738 87.6459 94.5898 87.4822 94.4098 87.4917C90.2313 87.7136 86.0369 87.7583 82.1298 87.7984C88.261 78.3537 98.8993 72.1037 110.996 72.1037L110.996 72.1036L110.999 72.1043ZM141.248 90.1206C143.891 94.9899 145.392 100.569 145.392 106.497C145.392 119.507 138.163 130.83 127.506 136.675L138.232 106.294C139.894 101.592 141.436 95.2376 141.247 90.1206H141.247H141.248ZM122.513 138.911C118.912 140.192 115.038 140.891 110.999 140.891C107.519 140.891 104.161 140.372 100.995 139.412L111.591 109.048L122.513 138.913L122.513 138.911ZM96.281 137.589C84.65 132.073 76.6046 120.223 76.6046 106.498C76.6046 101.41 77.7113 96.5806 79.695 92.2352L96.2818 137.589L96.2819 137.589L96.281 137.589ZM110.997 68.8768C131.77 68.8768 148.617 85.7238 148.617 106.497C148.617 127.27 131.77 144.117 110.997 144.117C90.2245 144.117 73.3775 127.27 73.3775 106.497C73.3775 85.7238 90.2245 68.8768 110.997 68.8768ZM110.997 66.4989C133.084 66.4989 150.996 84.4114 150.996 106.498C150.996 128.584 133.084 146.496 110.997 146.496C88.9111 146.496 70.9987 128.584 70.9987 106.498C70.9987 84.4114 88.9111 66.4989 110.997 66.4989Z" fill="#464342"/>
</g>
<g clip-path="url(#clip1)">
<path d="M69.0722 34.0831C61.667 27.2864 54.602 20.8074 52.499 13.5C50.396 20.8074 43.3297 27.2864 35.9258 34.0831C24.8194 44.2747 12.2275 55.8251 12.2275 73.1492C12.2102 78.0157 13.239 82.8374 15.2551 87.338C17.2713 91.8386 20.235 95.9296 23.9763 99.3763C27.7177 102.823 32.1632 105.558 37.0579 107.424C41.9526 109.29 47.2003 110.25 52.5001 110.25C57.7999 110.25 63.0476 109.29 67.9423 107.424C72.837 105.558 77.2824 102.823 81.0238 99.3763C84.7652 95.9296 87.7289 91.8386 89.745 87.338C91.7611 82.8374 92.79 78.0157 92.7727 73.1492C92.7727 55.8263 80.1817 44.2747 69.0722 34.0831ZM29.3448 81.7663C26.8753 81.6893 17.7617 67.2653 34.6687 51.9076L45.8568 63.1289C45.9528 63.216 46.0278 63.3209 46.0766 63.4365C46.1254 63.5521 46.1469 63.6759 46.1399 63.7997C46.1328 63.9236 46.0973 64.0446 46.0356 64.1549C45.9739 64.2653 45.8875 64.3623 45.7821 64.4398C43.1121 66.9537 31.7332 77.4316 30.3186 81.0545C30.0271 81.8023 29.6005 81.7742 29.3444 81.7663H29.3448ZM52.5003 100.776C50.6814 100.776 48.8802 100.447 47.1998 99.8083C45.5193 99.1692 43.9924 98.2324 42.7062 97.0514C41.42 95.8704 40.3997 94.4684 39.7036 92.9253C39.0075 91.3822 38.6493 89.7284 38.6493 88.0581C38.7004 84.9743 39.9213 82.0033 42.1017 79.6572C44.5993 76.8531 52.4986 68.966 52.4986 68.966C52.4986 68.966 60.2765 76.9688 62.8765 79.6306C65.1411 81.9423 66.3807 84.949 66.3509 88.0581C66.3508 91.4312 64.8915 94.666 62.294 97.0511C59.6966 99.4362 56.1737 100.776 52.5003 100.776ZM79.0106 80.1516C78.7122 80.7512 78.0347 81.752 77.1209 81.7825C75.4917 81.8372 75.3176 81.0704 74.1133 79.434C71.4697 75.8415 48.398 53.7002 44.0824 49.4182C40.2867 45.6521 43.5478 42.9967 45.0609 41.6053C46.9588 39.8595 52.4986 34.7754 52.4986 34.7754C52.4986 34.7754 69.0178 49.1672 75.8989 59.0008C82.7799 68.8343 80.4088 77.3435 79.0106 80.1516Z" fill="#009CDE"/>
</g>
<defs>
<clipPath id="clip0">
<rect width="80" height="80" fill="white" transform="translate(71 66.5)"/>
</clipPath>
<clipPath id="clip1">
<rect width="85" height="102" fill="white" transform="translate(10 13.5)"/>
</clipPath>
</defs>
</svg>
